<?xml version="1.0" encoding="UTF-8" standalone="no"?>
<!-- Created with Inkscape (http://www.inkscape.org/) -->

<svg
   xmlns:dc="http://purl.org/dc/elements/1.1/"
   xmlns:cc="http://creativecommons.org/ns#"
   xmlns:rdf="http://www.w3.org/1999/02/22-rdf-syntax-ns#"
   xmlns:svg="http://www.w3.org/2000/svg"
   xmlns="http://www.w3.org/2000/svg"
   xmlns:sodipodi="http://sodipodi.sourceforge.net/DTD/sodipodi-0.dtd"
   xmlns:inkscape="http://www.inkscape.org/namespaces/inkscape"
   width="200mm"
   height="200mm"
   viewBox="0 0 200 200"
   version="1.1"
   id="svg8"
   inkscape:version="0.92.3 (2405546, 2018-03-11)"
   sodipodi:docname="picto-dev-encheres.svg">
  <defs
     id="defs2" />
  <sodipodi:namedview
     id="base"
     pagecolor="#ffffff"
     bordercolor="#666666"
     borderopacity="1.0"
     inkscape:pageopacity="0.0"
     inkscape:pageshadow="2"
     inkscape:zoom="1"
     inkscape:cx="167.45276"
     inkscape:cy="377.95276"
     inkscape:document-units="mm"
     inkscape:current-layer="layer1"
     showgrid="false"
     showborder="true"
     inkscape:snap-bbox="true"
     inkscape:snap-global="false"
     inkscape:window-width="1920"
     inkscape:window-height="1001"
     inkscape:window-x="-9"
     inkscape:window-y="-9"
     inkscape:window-maximized="1" />
  <metadata
     id="metadata5">
    <rdf:RDF>
      <cc:Work
         rdf:about="">
        <dc:format>image/svg+xml</dc:format>
        <dc:type
           rdf:resource="http://purl.org/dc/dcmitype/StillImage" />
        <dc:title />
      </cc:Work>
    </rdf:RDF>
  </metadata>
  <g
     inkscape:label="Calque 1"
     inkscape:groupmode="layer"
     id="layer1"
     transform="translate(0,-97)">
    <g
       id="g4337"
       transform="matrix(1.0602841,0,0,1.0602841,-209.22841,-12.140546)">
      <path
         id="path4349"
         style="opacity:1;fill:none;fill-opacity:1;stroke:#009400;stroke-width:3.92300129;stroke-linecap:round;stroke-linejoin:round;stroke-miterlimit:4;stroke-dasharray:none;stroke-dashoffset:0;stroke-opacity:1;paint-order:stroke fill markers"
         r="91.178047"
         cy="134.00061"
         cx="114.63641"
         d=""
         inkscape:connector-curvature="0" />
      <path
         id="path4351"
         style="opacity:1;fill:none;fill-opacity:1;stroke:#009400;stroke-width:3.92300129;stroke-linecap:round;stroke-linejoin:round;stroke-miterlimit:4;stroke-dasharray:none;stroke-dashoffset:0;stroke-opacity:1;paint-order:stroke fill markers"
         r="91.178047"
         cy="134.00061"
         cx="114.63641"
         d=""
         inkscape:connector-curvature="0" />
      <path
         id="path4353"
         style="opacity:1;fill:none;fill-opacity:1;stroke:#88e800;stroke-width:3.92300129;stroke-linecap:round;stroke-linejoin:round;stroke-miterlimit:4;stroke-dasharray:none;stroke-dashoffset:0;stroke-opacity:1;paint-order:stroke fill markers"
         r="91.178047"
         cy="134.00061"
         cx="114.63641"
         d=""
         inkscape:connector-curvature="0" />
      <path
         cx="114.63641"
         cy="134.00061"
         r="91.178047"
         id="circle4355"
         style="opacity:1;fill:none;fill-opacity:1;stroke:#88e800;stroke-width:3.92300129;stroke-linecap:round;stroke-linejoin:round;stroke-miterlimit:4;stroke-dasharray:none;stroke-dashoffset:0;stroke-opacity:1;paint-order:stroke fill markers"
         d=""
         inkscape:connector-curvature="0" />
    </g>
    <path
       style="color:#000000;font-style:normal;font-variant:normal;font-weight:normal;font-stretch:normal;font-size:medium;line-height:normal;font-family:sans-serif;font-variant-ligatures:normal;font-variant-position:normal;font-variant-caps:normal;font-variant-numeric:normal;font-variant-alternates:normal;font-feature-settings:normal;text-indent:0;text-align:start;text-decoration:none;text-decoration-line:none;text-decoration-style:solid;text-decoration-color:#000000;letter-spacing:normal;word-spacing:normal;text-transform:none;writing-mode:lr-tb;direction:ltr;text-orientation:mixed;dominant-baseline:auto;baseline-shift:baseline;text-anchor:start;white-space:normal;shape-padding:0;clip-rule:nonzero;display:inline;overflow:visible;visibility:visible;opacity:1;isolation:auto;mix-blend-mode:normal;color-interpolation:sRGB;color-interpolation-filters:linearRGB;solid-color:#000000;solid-opacity:1;vector-effect:none;fill:#008c00;fill-opacity:1;fill-rule:nonzero;stroke:#008c00;stroke-width:3.96875;stroke-linecap:round;stroke-linejoin:round;stroke-miterlimit:4;stroke-dasharray:none;stroke-dashoffset:0;stroke-opacity:1;paint-order:markers fill stroke;color-rendering:auto;image-rendering:auto;shape-rendering:auto;text-rendering:auto;enable-background:accumulate"
       d="m 23.227419,267.29627 c -3.974264,0 -7.561475,0.48679 -10.347411,1.36816 -1.392967,0.44069 -2.59026,0.96537 -3.5984164,1.72196 -1.0081576,0.75658 -1.9794663,1.94137 -1.9794663,3.50437 v 0.57547 8.63666 a 2.2752695,2.2752695 0 0 0 2.275042,2.27504 H 108.16306 a 2.2752695,2.2752695 0 0 0 2.27505,-2.27504 v -8.63666 -0.57547 c 0,-1.563 -0.97131,-2.74779 -1.97946,-3.50437 -1.00816,-0.75659 -2.20546,-1.28127 -3.59842,-1.72196 -2.78594,-0.88137 -6.37315,-1.36816 -10.347415,-1.36816 z m 0,4.55009 h 71.285396 c 3.587975,0 6.826145,0.47792 8.974775,1.15766 1.07431,0.33989 1.86955,0.74367 2.23921,1.02109 0.13551,0.10169 0.14256,0.11282 0.16122,0.12764 v 0.31348 6.36161 H 11.852209 v -6.36161 -0.31348 c 0.0188,-0.015 0.02378,-0.0261 0.158985,-0.12764 0.369664,-0.27742 1.167138,-0.6812 2.241453,-1.02109 2.148631,-0.67974 5.386796,-1.15766 8.974772,-1.15766 z"
       id="rect4334"
       inkscape:connector-curvature="0" />
    <path
       style="color:#000000;font-style:normal;font-variant:normal;font-weight:normal;font-stretch:normal;font-size:medium;line-height:normal;font-family:sans-serif;font-variant-ligatures:normal;font-variant-position:normal;font-variant-caps:normal;font-variant-numeric:normal;font-variant-alternates:normal;font-feature-settings:normal;text-indent:0;text-align:start;text-decoration:none;text-decoration-line:none;text-decoration-style:solid;text-decoration-color:#000000;letter-spacing:normal;word-spacing:normal;text-transform:none;writing-mode:lr-tb;direction:ltr;text-orientation:mixed;dominant-baseline:auto;baseline-shift:baseline;text-anchor:start;white-space:normal;shape-padding:0;clip-rule:nonzero;display:inline;overflow:visible;visibility:visible;opacity:1;isolation:auto;mix-blend-mode:normal;color-interpolation:sRGB;color-interpolation-filters:linearRGB;solid-color:#000000;solid-opacity:1;vector-effect:none;fill:#008c00;fill-opacity:1;fill-rule:nonzero;stroke:#008c00;stroke-width:2.11666667;stroke-linecap:round;stroke-linejoin:round;stroke-miterlimit:4;stroke-dasharray:none;stroke-dashoffset:0;stroke-opacity:1;paint-order:markers fill stroke;color-rendering:auto;image-rendering:auto;shape-rendering:auto;text-rendering:auto;enable-background:accumulate"
       d="m 29.713478,252.67722 c -3.268863,0 -6.214871,0.44112 -8.536954,1.26006 -1.161042,0.40947 -2.162319,0.88574 -3.077601,1.65145 -0.91528,0.76572 -2.082866,2.14204 -2.082866,4.47706 v 0.52503 7.87544 a 2.5333595,3.4522233 0 0 0 2.533531,3.45246 h 80.641057 a 2.5333595,3.4522233 0 0 0 2.533535,-3.45246 v -7.87544 -0.52503 c 0,-2.33502 -1.16759,-3.71134 -2.082869,-4.47706 -0.915281,-0.76571 -1.918895,-1.24198 -3.079936,-1.65145 -2.322082,-0.81894 -5.268091,-1.26006 -8.536954,-1.26006 z m 0,6.90492 h 58.310943 c 2.917015,0 5.554651,0.43589 7.269021,1.0405 0.688394,0.24279 1.067562,0.48531 1.36367,0.68095 v 3.71338 H 21.080787 v -3.71018 c 0.295705,-0.19567 0.676191,-0.44086 1.366006,-0.68415 1.71437,-0.60461 4.349669,-1.0405 7.266685,-1.0405 z"
       id="path4339"
       inkscape:connector-curvature="0" />
    <text
       xml:space="preserve"
       style="font-style:normal;font-variant:normal;font-weight:normal;font-stretch:normal;font-size:70.66855621px;line-height:1.25;font-family:'Roboto Condensed';-inkscape-font-specification:'Roboto Condensed, ';text-align:center;letter-spacing:0px;word-spacing:0px;text-anchor:middle;fill:#c8fc00;fill-opacity:1;stroke:none;stroke-width:2.20839238"
       x="56.528374"
       y="257.05258"
       id="text4343"
       transform="scale(1.0570775,0.94600443)"><tspan
         sodipodi:role="line"
         id="tspan4341"
         x="56.528374"
         y="257.05258"
         style="font-style:normal;font-variant:normal;font-weight:bold;font-stretch:normal;font-family:'Myriad Pro';-inkscape-font-specification:'Myriad Pro Bold';fill:#c8fc00;stroke-width:2.20839238">€</tspan></text>
    <g
       id="g4386"
       transform="matrix(0.60537494,-0.60537494,0.60537494,0.60537494,-71.747709,158.69947)"
       style="stroke-width:4.63568926;stroke-miterlimit:4;stroke-dasharray:none">
      <path
         style="color:#000000;font-style:normal;font-variant:normal;font-weight:normal;font-stretch:normal;font-size:medium;line-height:normal;font-family:sans-serif;font-variant-ligatures:normal;font-variant-position:normal;font-variant-caps:normal;font-variant-numeric:normal;font-variant-alternates:normal;font-feature-settings:normal;text-indent:0;text-align:start;text-decoration:none;text-decoration-line:none;text-decoration-style:solid;text-decoration-color:#000000;letter-spacing:normal;word-spacing:normal;text-transform:none;writing-mode:lr-tb;direction:ltr;text-orientation:mixed;dominant-baseline:auto;baseline-shift:baseline;text-anchor:start;white-space:normal;shape-padding:0;clip-rule:nonzero;display:inline;overflow:visible;visibility:visible;opacity:1;isolation:auto;mix-blend-mode:normal;color-interpolation:sRGB;color-interpolation-filters:linearRGB;solid-color:#000000;solid-opacity:1;vector-effect:none;fill:#008c00;fill-opacity:1;fill-rule:nonzero;stroke:#008c00;stroke-width:4.63568926;stroke-linecap:round;stroke-linejoin:round;stroke-miterlimit:4;stroke-dasharray:none;stroke-dashoffset:0;stroke-opacity:1;paint-order:markers fill stroke;color-rendering:auto;image-rendering:auto;shape-rendering:auto;text-rendering:auto;enable-background:accumulate"
         d="m 107.12783,111.69471 a 2.3180764,2.3180764 0 0 0 -2.31769,2.31769 v 55.61883 a 2.3180764,2.3180764 0 0 0 2.31769,2.31768 h 7.46517 a 2.3180764,2.3180764 0 0 0 2.31769,-2.31768 v -2.8696 h 18.89652 c -0.0902,0.40573 -0.14469,0.82357 -0.14469,1.25419 v 4.23333 c 0,3.22282 2.66675,5.88957 5.88956,5.88957 h 2.57969 v 92.61966 c 0,3.2619 0.9613,6.25403 2.6634,8.53437 1.7021,2.28034 4.27137,3.88296 7.19284,3.88296 h 2.38022 c 2.92148,0 5.49075,-1.60262 7.19284,-3.88296 1.7021,-2.28035 2.66341,-5.27247 2.66341,-8.53437 v -92.61966 h 2.57968 c 3.22282,0 5.88957,-2.66675 5.88957,-5.88957 v -4.23333 c 0,-0.43062 -0.0545,-0.84846 -0.1447,-1.25419 h 18.89652 v 2.8696 a 2.3180764,2.3180764 0 0 0 2.31769,2.31768 h 7.46518 a 2.3180764,2.3180764 0 0 0 2.31769,-2.31768 V 114.0124 a 2.3180764,2.3180764 0 0 0 -2.31769,-2.31769 h -7.46518 a 2.3180764,2.3180764 0 0 0 -2.31769,2.31769 v 2.87011 h -76.53486 v -2.87011 a 2.3180764,2.3180764 0 0 0 -2.31769,-2.31769 z m 2.31768,4.63538 h 2.82981 v 2.87011 a 2.3180764,2.3180764 0 0 0 2.31768,2.31768 h 81.17024 a 2.3180764,2.3180764 0 0 0 2.31769,-2.31768 v -2.87011 h 2.8298 v 50.98345 h -2.8298 v -2.8696 a 2.3180764,2.3180764 0 0 0 -2.31769,-2.31768 h -26.95908 a 2.3180764,2.3180764 0 0 0 0,4.63537 c 0.73483,0 1.25419,0.51936 1.25419,1.25419 v 4.23333 c 0,0.73483 -0.51936,1.25419 -1.25419,1.25419 h -4.89737 a 2.3180764,2.3180764 0 0 0 -2.31769,2.31769 v 94.93735 c 0,2.33338 -0.71995,4.39075 -1.74304,5.76141 -1.0231,1.37066 -2.22294,2.02055 -3.47783,2.02055 h -2.38022 c -1.25488,0 -2.45473,-0.64989 -3.47782,-2.02055 -1.02309,-1.37066 -1.74305,-3.42803 -1.74305,-5.76141 v -94.93735 a 2.3180764,2.3180764 0 0 0 -2.31768,-2.31769 h -4.89738 c -0.73482,0 -1.25418,-0.51936 -1.25418,-1.25419 v -4.23333 c 0,-0.73483 0.51936,-1.25419 1.25418,-1.25419 a 2.3180764,2.3180764 0 0 0 0,-4.63537 H 114.593 a 2.3180764,2.3180764 0 0 0 -2.31768,2.31768 v 2.8696 h -2.82981 z"
         id="rect4349"
         inkscape:connector-curvature="0" />
      <path
         style="color:#000000;font-style:normal;font-variant:normal;font-weight:normal;font-stretch:normal;font-size:medium;line-height:normal;font-family:sans-serif;font-variant-ligatures:normal;font-variant-position:normal;font-variant-caps:normal;font-variant-numeric:normal;font-variant-alternates:normal;font-feature-settings:normal;text-indent:0;text-align:start;text-decoration:none;text-decoration-line:none;text-decoration-style:solid;text-decoration-color:#000000;letter-spacing:normal;word-spacing:normal;text-transform:none;writing-mode:lr-tb;direction:ltr;text-orientation:mixed;dominant-baseline:auto;baseline-shift:baseline;text-anchor:start;white-space:normal;shape-padding:0;clip-rule:nonzero;display:inline;overflow:visible;visibility:visible;opacity:1;isolation:auto;mix-blend-mode:normal;color-interpolation:sRGB;color-interpolation-filters:linearRGB;solid-color:#000000;solid-opacity:1;vector-effect:none;fill:#008c00;fill-opacity:1;fill-rule:nonzero;stroke:#008c00;stroke-width:4.63568926;stroke-linecap:round;stroke-linejoin:round;stroke-miterlimit:4;stroke-dasharray:none;stroke-dashoffset:0;stroke-opacity:1;paint-order:markers fill stroke;color-rendering:auto;image-rendering:auto;shape-rendering:auto;text-rendering:auto;enable-background:accumulate"
         d="m 141.55273,162.125 c -3.22281,0 -5.89062,2.66781 -5.89062,5.89062 v 4.23243 c 0,3.22281 2.66781,5.89062 5.89062,5.89062 h 27.25196 c 3.22281,0 5.88867,-2.66781 5.88867,-5.89062 v -4.23243 c 0,-3.22281 -2.66586,-5.89062 -5.88867,-5.89062 z m 0,4.63672 h 27.25196 c 0.73482,0 1.2539,0.51908 1.2539,1.2539 v 4.23243 c 0,0.73482 -0.51908,1.25586 -1.2539,1.25586 h -27.25196 c -0.73482,0 -1.2539,-0.52104 -1.2539,-1.25586 v -4.23243 c 0,-0.73482 0.51908,-1.2539 1.2539,-1.2539 z"
         id="rect4373"
         inkscape:connector-curvature="0" />
    </g>
    <g
       id="g4432"
       transform="translate(-1.4803649)">
      <g
         id="g4416">
        <path
           style="fill:none;stroke:#c8fc00;stroke-width:2.64583325;stroke-linecap:round;stroke-linejoin:miter;stroke-miterlimit:4;stroke-dasharray:none;stroke-opacity:1"
           d="M 35.10483,211.05887 22.21052,205.7496"
           id="path4402"
           inkscape:connector-curvature="0" />
        <path
           inkscape:connector-curvature="0"
           id="path4404"
           d="m 35.10483,227.58338 -12.89431,5.30927"
           style="fill:none;stroke:#c8fc00;stroke-width:2.64583325;stroke-linecap:round;stroke-linejoin:miter;stroke-miterlimit:4;stroke-dasharray:none;stroke-opacity:1" />
      </g>
      <g
         transform="translate(0,-1.230075)"
         id="g4422">
        <path
           inkscape:connector-curvature="0"
           id="path4406"
           d="m 85.596137,212.28894 12.89431,-5.30927"
           style="fill:none;stroke:#c8fc00;stroke-width:2.64583325;stroke-linecap:round;stroke-linejoin:miter;stroke-miterlimit:4;stroke-dasharray:none;stroke-opacity:1" />
        <path
           style="fill:none;stroke:#c8fc00;stroke-width:2.64583325;stroke-linecap:round;stroke-linejoin:miter;stroke-miterlimit:4;stroke-dasharray:none;stroke-opacity:1"
           d="m 85.596137,228.81345 12.89431,5.30927"
           id="path4408"
           inkscape:connector-curvature="0" />
      </g>
      <path
         inkscape:connector-curvature="0"
         id="path4412"
         d="M 32.885292,219.32112 H 25.587624"
         style="fill:none;stroke:#c8fc00;stroke-width:2.28440118;stroke-linecap:round;stroke-linejoin:miter;stroke-miterlimit:4;stroke-dasharray:none;stroke-opacity:1" />
      <path
         style="fill:none;stroke:#c8fc00;stroke-width:2.28440118;stroke-linecap:round;stroke-linejoin:miter;stroke-miterlimit:4;stroke-dasharray:none;stroke-opacity:1"
         d="M 94.533208,219.32112 H 87.23554"
         id="path4418"
         inkscape:connector-curvature="0" />
    </g>
    <path
       style="opacity:1;fill:#008c00;fill-opacity:1;stroke:#008c00;stroke-width:18.89763832;stroke-linecap:round;stroke-linejoin:round;stroke-miterlimit:4;stroke-dasharray:none;stroke-dashoffset:0;stroke-opacity:1;paint-order:markers fill stroke"
       d="m 53.05707,680.41433 0.29569,-6.73843 6.5,-1.99217 c 6.351247,-1.94658 9.976966,-1.99883 158.43165,-2.28344 157.36242,-0.30168 160.98252,-0.22483 170.81835,3.62624 2.609,1.02152 2.75,1.41125 2.75,7.60147 v 6.52475 H 222.30707 52.76138 Z"
       id="path4340"
       inkscape:connector-curvature="0"
       transform="matrix(0.26458333,0,0,0.26458333,0,97)" />
  </g>
</svg>
